<svg width="121" height="18" viewBox="0 0 121 18" fill="none" xmlns="http://www.w3.org/2000/svg">
<path d="M4.50005 0C2.01474 0 0 2.01472 0 4.5V8.6925H4.12505C6.09259 8.6925 8.6926 6.09251 8.6926 4.125V0H4.50005Z" fill="white"/>
<path d="M9.30761 0V4.125C9.30761 6.09251 11.9076 8.6925 13.8752 8.6925H18.0002V4.5C18.0002 2.01472 15.9855 0 13.5002 0H9.30761Z" fill="white"/>
<path d="M18.0002 9.3075H13.8752C11.9076 9.3075 9.30761 11.9075 9.30761 13.875V18H13.5002C15.9855 18 18.0002 15.9853 18.0002 13.5V9.3075Z" fill="white"/>
<path d="M8.6926 18V13.875C8.6926 11.9075 6.09259 9.3075 4.12505 9.3075H0V13.5C0 15.9853 2.01474 18 4.50005 18H8.6926Z" fill="white"/>
<path d="M117.252 3.8403H120.27V14.2473H117.388V13.048C116.633 13.9571 115.531 14.4021 114.138 14.4021C111.198 14.4021 108.934 12.3129 108.934 9.0438C108.934 5.77469 111.198 3.68555 114.138 3.68555C115.415 3.68555 116.498 4.09177 117.252 4.9429V3.8403ZM114.66 11.926C116.15 11.926 117.31 10.8428 117.31 9.0438C117.31 7.24482 116.15 6.16156 114.66 6.16156C113.151 6.16156 111.991 7.24482 111.991 9.0438C111.991 10.8428 113.151 11.926 114.66 11.926Z" fill="white"/>
<path d="M106.867 11.6905L107.66 13.8183C107.041 14.2632 106.132 14.476 105.223 14.476C102.747 14.476 101.335 13.2186 101.335 10.7426V1.6123H104.352V4.14635H106.925V6.46762H104.352V10.7039C104.352 11.5937 104.817 12.0773 105.629 12.0773C106.074 12.0773 106.519 11.9419 106.867 11.6905Z" fill="white"/>
<path d="M95.835 3.8403H98.8527V14.2473H95.9704V13.048C95.2159 13.9571 94.1133 14.4021 92.7205 14.4021C89.7801 14.4021 87.5168 12.3129 87.5168 9.0438C87.5168 5.77469 89.7801 3.68555 92.7205 3.68555C93.9972 3.68555 95.0805 4.09177 95.835 4.9429V3.8403ZM93.2428 11.926C94.7323 11.926 95.893 10.8428 95.893 9.0438C95.893 7.24482 94.7323 6.16156 93.2428 6.16156C91.7339 6.16156 90.5733 7.24482 90.5733 9.0438C90.5733 10.8428 91.7339 11.926 93.2428 11.926Z" fill="white"/>
<path d="M82.479 0H85.4967V14.3532H82.6144V13.1538C81.86 14.063 80.7573 14.5079 79.3645 14.5079C76.4242 14.5079 74.1609 12.4188 74.1609 9.14966C74.1609 5.88054 76.4242 3.7914 79.3645 3.7914C80.6413 3.7914 81.7246 4.19762 82.479 5.04875V0ZM79.8868 12.0319C81.3764 12.0319 82.537 10.9486 82.537 9.14966C82.537 7.35068 81.3764 6.26742 79.8868 6.26742C78.378 6.26742 77.2173 7.35068 77.2173 9.14966C77.2173 10.9486 78.378 12.0319 79.8868 12.0319Z" fill="white"/>
<path d="M66.955 3.68555C69.876 3.68555 72.1393 5.77469 72.1393 9.0438C72.1393 12.3129 69.876 14.4021 66.955 14.4021C65.6589 14.4021 64.595 13.9958 63.8212 13.1447V18H60.8035V3.8403H63.6858V5.03962C64.4402 4.13046 65.5622 3.68555 66.955 3.68555ZM66.4327 11.926C67.9416 11.926 69.0829 10.8428 69.0829 9.0438C69.0829 7.24482 67.9416 6.16156 66.4327 6.16156C64.9238 6.16156 63.7825 7.24482 63.7825 9.0438C63.7825 10.8428 64.9238 11.926 66.4327 11.926Z" fill="white"/>
<path d="M52.9425 14.4021C49.6346 14.4021 47.2166 12.1775 47.2166 9.0438C47.2166 5.91009 49.6346 3.68555 52.9425 3.68555C56.2504 3.68555 58.6491 5.91009 58.6491 9.0438C58.6491 12.1775 56.2504 14.4021 52.9425 14.4021ZM52.9425 11.926C54.4514 11.926 55.5927 10.8428 55.5927 9.0438C55.5927 7.24482 54.4514 6.16156 52.9425 6.16156C51.4336 6.16156 50.273 7.24482 50.273 9.0438C50.273 10.8428 51.4336 11.926 52.9425 11.926Z" fill="white"/>
<path d="M42.2688 5.21371C43.0039 4.20783 44.2419 3.68555 45.8475 3.68555V6.47107C45.596 6.45172 45.4026 6.43238 45.1705 6.43238C43.5068 6.43238 42.4042 7.34154 42.4042 9.33396V14.2473H39.3865V3.8403H42.2688V5.21371Z" fill="white"/>
<path d="M32.2045 3.68555C35.1255 3.68555 37.3888 5.77469 37.3888 9.0438C37.3888 12.3129 35.1255 14.4021 32.2045 14.4021C30.9084 14.4021 29.8445 13.9958 29.0707 13.1447V18H26.053V3.8403H28.9353V5.03962C29.6897 4.13046 30.8117 3.68555 32.2045 3.68555ZM31.6822 11.926C33.1911 11.926 34.3324 10.8428 34.3324 9.0438C34.3324 7.24482 33.1911 6.16156 31.6822 6.16156C30.1733 6.16156 29.032 7.24482 29.032 9.0438C29.032 10.8428 30.1733 11.926 31.6822 11.926Z" fill="white"/>
</svg>
