<svg width="24" height="24" viewBox="0 0 24 24" fill="none" xmlns="http://www.w3.org/2000/svg">
<path d="M18 21C19.6569 21 21 19.6569 21 18C21 16.3431 19.6569 15 18 15C16.3431 15 15 16.3431 15 18C15 19.6569 16.3431 21 18 21Z" stroke="#FAFAFA" stroke-width="2" stroke-linecap="round" stroke-linejoin="round"/>
<path d="M10.3 20.0001H4C3.46957 20.0001 2.96086 19.7894 2.58579 19.4143C2.21071 19.0392 2 18.5305 2 18.0001V5.0001C2 4.46966 2.21071 3.96096 2.58579 3.58588C2.96086 3.21081 3.46957 3.0001 4 3.0001H7.9C8.23449 2.99682 8.56445 3.07748 8.8597 3.23472C9.15495 3.39195 9.40604 3.62072 9.59 3.9001L10.4 5.1001C10.5821 5.37663 10.83 5.60362 11.1215 5.7607C11.413 5.91778 11.7389 6.00004 12.07 6.0001H20C20.5304 6.0001 21.0391 6.21081 21.4142 6.58588C21.7893 6.96096 22 7.46966 22 8.0001V11.3001" stroke="#FAFAFA" stroke-width="2" stroke-linecap="round" stroke-linejoin="round"/>
<path d="M21.6998 19.3996L20.7998 19.0996" stroke="#FAFAFA" stroke-width="2" stroke-linecap="round" stroke-linejoin="round"/>
<path d="M15.1998 16.8996L14.2998 16.5996" stroke="#FAFAFA" stroke-width="2" stroke-linecap="round" stroke-linejoin="round"/>
<path d="M16.6001 21.6998L16.9001 20.7998" stroke="#FAFAFA" stroke-width="2" stroke-linecap="round" stroke-linejoin="round"/>
<path d="M19.1001 15.1998L19.4001 14.2998" stroke="#FAFAFA" stroke-width="2" stroke-linecap="round" stroke-linejoin="round"/>
<path d="M19.6002 21.7002L19.2002 20.7002" stroke="#FAFAFA" stroke-width="2" stroke-linecap="round" stroke-linejoin="round"/>
<path d="M16.7999 15.2998L16.3999 14.2998" stroke="#FAFAFA" stroke-width="2" stroke-linecap="round" stroke-linejoin="round"/>
<path d="M14.2998 19.6002L15.2998 19.2002" stroke="#FAFAFA" stroke-width="2" stroke-linecap="round" stroke-linejoin="round"/>
<path d="M20.7002 16.8004L21.7002 16.4004" stroke="#FAFAFA" stroke-width="2" stroke-linecap="round" stroke-linejoin="round"/>
</svg>
